<svg width="1000" height="1000" viewBox="0 0 1000 1000" fill="none" xmlns="http://www.w3.org/2000/svg">
<path d="M565.123 391.013C568.437 391.013 571.123 393.699 571.123 397.013V439.532C571.123 442.846 568.437 445.532 565.123 445.532H442.471V509.548H552.818C556.132 509.548 558.818 512.234 558.818 515.548V558.067C558.818 561.381 556.132 564.067 552.818 564.067H442.471V677.013C442.471 680.326 439.784 683.013 436.471 683.013H385.748C382.434 683.013 379.748 680.326 379.748 677.013V397.013C379.748 393.699 382.434 391.013 385.748 391.013H565.123Z" fill="black" stroke="black" stroke-width="12" stroke-linejoin="round"/>
<path d="M769.999 360C766.375 360 763.269 357.413 762.612 353.85C754.66 310.654 747.355 284.252 731.551 268.448C715.748 252.645 689.345 245.34 646.15 237.388C642.586 236.731 639.999 233.625 639.999 230C639.999 226.376 642.587 223.27 646.15 222.613C689.345 214.662 715.748 207.357 731.551 191.552C747.355 175.748 754.66 149.346 762.612 106.151C763.269 102.587 766.375 100 769.999 100C773.624 100 776.73 102.588 777.387 106.151C785.338 149.346 792.644 175.748 808.448 191.552C824.252 207.356 850.654 214.661 893.849 222.613C897.414 223.27 900 226.376 900 230C900 233.625 897.412 236.731 893.849 237.388C850.654 245.339 824.252 252.645 808.448 268.448C792.644 284.252 785.339 310.655 777.387 353.85C776.73 357.413 773.623 360 769.999 360Z" fill="url(#paint0_linear_1723_26)"/>
<path d="M555.436 205.013C573.109 205.013 587.436 219.34 587.436 237.013C587.436 254.686 573.109 269.013 555.436 269.013H207.436V805.013H743.436V447.013C743.436 429.34 757.762 415.013 775.436 415.013C793.109 415.013 807.436 429.34 807.436 447.013V869.013H143.436V205.013H555.436Z" fill="black" stroke="black" stroke-width="14" stroke-linecap="round"/>
<defs>
<linearGradient id="paint0_linear_1723_26" x1="769.999" y1="100" x2="769.999" y2="360" gradientUnits="userSpaceOnUse">
<stop stop-color="#A900FF"/>
<stop offset="1" stop-color="#DE9DFF"/>
</linearGradient>
</defs>
</svg>
